<svg width="24" height="24" viewBox="0 0 24 24" fill="none" xmlns="http://www.w3.org/2000/svg">
<path d="M9 2H2V14H9C9.55228 14 10 13.5523 10 13V3C10 2.44772 9.55228 2 9 2Z" fill="black"/>
<path d="M9 16H2V18H9C9.55228 18 10 17.5523 10 17C10 16.4477 9.55228 16 9 16Z" fill="black"/>
<path fill-rule="evenodd" clip-rule="evenodd" d="M13 4C12.4477 4 12 4.44772 12 5V13.4615C12 13.7589 12.2411 14 12.5385 14H15.3077C17.3469 14 19 15.6531 19 17.6923C19 17.8622 19.1378 18 19.3077 18H21C21.5523 18 22 17.5523 22 17V10.3636L19.9521 4.66196C19.8094 4.26485 19.4329 4 19.0109 4H13ZM15 6C14.4477 6 14 6.44772 14 7V10C14 10.5523 14.4477 11 15 11H18.581C19.2725 11 19.7553 10.3149 19.5227 9.66366L18.4513 6.66366C18.3092 6.26567 17.9322 6 17.5096 6H15Z" fill="black"/>
<path d="M14 22C15.6569 22 17 20.6569 17 19C17 17.3431 15.6569 16 14 16C12.3431 16 11 17.3431 11 19C11 20.6569 12.3431 22 14 22Z" fill="black"/>
</svg>
