<svg width="24" height="24" viewBox="0 0 24 24" fill="none" xmlns="http://www.w3.org/2000/svg">
<path fill-rule="evenodd" clip-rule="evenodd" d="M5 5V3C5 2.4 5.4 2 6 2C6.6 2 7 2.4 7 3V5C7 5.6 6.6 6 6 6C5.4 6 5 5.6 5 5ZM12 6C12.6 6 13 5.6 13 5V3C13 2.4 12.6 2 12 2C11.4 2 11 2.4 11 3V5C11 5.6 11.4 6 12 6ZM18 6C18.6 6 19 5.6 19 5V3C19 2.4 18.6 2 18 2C17.4 2 17 2.4 17 3V5C17 5.6 17.4 6 18 6ZM15.2 10.7C14.4 10.7 13.9 11.4 13.9 12.7V12.9C13.9 14.2 14.4 14.9 15.2 14.9C16 14.9 16.5 14.2 16.5 12.9V12.7C16.5 11.5 16 10.7 15.2 10.7ZM21 5V19C21 20.1 20.1 21 19 21H5C3.9 21 3 20.1 3 19V5C3 4.3 3.4 3.6 4 3.3V5C4 6.1 4.9 7 6 7C7.1 7 8 6.1 8 5V3H10V5C10 6.1 10.9 7 12 7C13.1 7 14 6.1 14 5V3H16V5C16 6.1 16.9 7 18 7C19.1 7 20 6.1 20 5V3.3C20.6 3.6 21 4.3 21 5ZM10.9 14.2C10.9 13.3 10.4 12.8 9.7 12.7C10.3 12.5 10.8 12.1 10.8 11.3C10.8 10.3 10 9.6 8.5 9.6C7.1 9.6 6.2 10.4 6.2 11.6H7.5C7.5 11 7.9 10.6 8.6 10.6C9.1 10.6 9.6 10.9 9.6 11.4C9.6 11.9 9.2 12.2 8.6 12.2H7.8V13.2H8.4C9.1 13.2 9.5 13.5 9.5 14C9.5 14.6 9 14.9 8.5 14.9C7.8 14.9 7.3 14.5 7.3 13.8H6C6 15.1 6.9 15.9 8.4 15.9C9.9 15.9 10.9 15.3 10.9 14.2ZM17.8 12.7C17.8 10.8 16.7 9.6 15.2 9.6C13.7 9.6 12.6 10.8 12.6 12.7V13C12.6 14.9 13.7 16.1 15.2 16.1C16.7 16.1 17.8 15 17.8 13V12.7Z" fill="black"/>
</svg>
