<svg width="32" height="32" viewBox="0 0 32 32" fill="none" xmlns="http://www.w3.org/2000/svg">
<path d="M21.1 4C22.9121 4 24.6545 4.69421 25.9788 6.01322C27.303 7.33222 28 9.13718 28 11.0116C28 17.4754 21.4742 23.2912 16.8696 27.2528C16.3697 27.6828 15.6303 27.6828 15.1304 27.2528C10.5258 23.2912 4 17.4754 4 11.0116C4 9.13718 4.69697 7.33222 6.02121 6.01322C7.34545 4.69421 9.08788 4 10.9 4C12.5384 4 13.7831 4.51898 14.9272 5.49639C15.539 6.01899 16.461 6.01899 17.0728 5.49639C18.2169 4.51898 19.4616 4 21.1 4Z" fill="black"/>
</svg>
