<svg width="24" height="24" viewBox="0 0 24 24" fill="none" xmlns="http://www.w3.org/2000/svg">
<path fill-rule="evenodd" clip-rule="evenodd" d="M13.1756 3.85365C12.4746 3.34436 11.5254 3.34436 10.8244 3.85365L4.61605 8.36429C3.91508 8.87358 3.62176 9.77631 3.88951 10.6004L6.2609 17.8987C6.52865 18.7228 7.29656 19.2807 8.16301 19.2807H15.837C16.7034 19.2807 17.4713 18.7228 17.7391 17.8987L20.1105 10.6004C20.3782 9.77631 20.0849 8.87358 19.3839 8.36429L13.1756 3.85365ZM14.7966 15.9996H9.1426V14.7786L12.0686 12.3586C12.7396 11.8086 13.1576 11.3466 13.1576 10.7196C13.1576 9.96055 12.6626 9.56455 11.9586 9.56455C11.2216 9.56455 10.7156 10.0706 10.7156 10.9066V11.0276H9.1206V10.8076C9.1206 9.35555 10.2096 8.23355 11.9696 8.23355C13.7736 8.23355 14.7526 9.21255 14.7526 10.6536C14.7526 11.7866 14.1366 12.4796 13.1686 13.2606L11.4416 14.6686H14.7966V15.9996Z" fill="black"/>
</svg>
