<svg width="80" height="80" viewBox="0 0 80 80" fill="none" xmlns="http://www.w3.org/2000/svg">
<g clip-path="url(#clip0_1836_78245)">
<rect x="4.5" width="1" height="80" fill="white" fill-opacity="0.05"/>
<rect x="9.5" width="1" height="80" fill="white" fill-opacity="0.05"/>
<rect x="14.5" width="1" height="80" fill="white" fill-opacity="0.05"/>
<rect x="19.5" width="1" height="80" fill="white" fill-opacity="0.05"/>
<rect x="24.5" width="1" height="80" fill="white" fill-opacity="0.05"/>
<rect x="29.5" width="1" height="80" fill="white" fill-opacity="0.05"/>
<rect x="34.5" width="1" height="80" fill="white" fill-opacity="0.05"/>
<rect x="39.5" width="1" height="80" fill="white" fill-opacity="0.05"/>
<rect x="44.5" width="1" height="80" fill="white" fill-opacity="0.05"/>
<rect x="49.5" width="1" height="80" fill="white" fill-opacity="0.05"/>
<rect x="54.5" width="1" height="80" fill="white" fill-opacity="0.05"/>
<rect x="59.5" width="1" height="80" fill="white" fill-opacity="0.05"/>
<rect x="64.5" width="1" height="80" fill="white" fill-opacity="0.05"/>
<rect x="69.5" width="1" height="80" fill="white" fill-opacity="0.05"/>
<rect x="74.5" width="1" height="80" fill="white" fill-opacity="0.05"/>
<rect x="80" y="4.5" width="1" height="80" transform="rotate(90 80 4.5)" fill="white" fill-opacity="0.05"/>
<rect x="80" y="9.5" width="1" height="80" transform="rotate(90 80 9.5)" fill="white" fill-opacity="0.05"/>
<rect x="80" y="14.5" width="1" height="80" transform="rotate(90 80 14.5)" fill="white" fill-opacity="0.05"/>
<rect x="80" y="19.5" width="1" height="80" transform="rotate(90 80 19.5)" fill="white" fill-opacity="0.05"/>
<rect x="80" y="24.5" width="1" height="80" transform="rotate(90 80 24.5)" fill="white" fill-opacity="0.05"/>
<rect x="80" y="29.5" width="1" height="80" transform="rotate(90 80 29.5)" fill="white" fill-opacity="0.05"/>
<rect x="80" y="34.5" width="1" height="80" transform="rotate(90 80 34.5)" fill="white" fill-opacity="0.05"/>
<rect x="80" y="39.5" width="1" height="80" transform="rotate(90 80 39.5)" fill="white" fill-opacity="0.05"/>
<rect x="80" y="44.5" width="1" height="80" transform="rotate(90 80 44.5)" fill="white" fill-opacity="0.05"/>
<rect x="80" y="49.5" width="1" height="80" transform="rotate(90 80 49.5)" fill="white" fill-opacity="0.05"/>
<rect x="80" y="54.5" width="1" height="80" transform="rotate(90 80 54.5)" fill="white" fill-opacity="0.05"/>
<rect x="80" y="59.5" width="1" height="80" transform="rotate(90 80 59.5)" fill="white" fill-opacity="0.05"/>
<rect x="80" y="64.5" width="1" height="80" transform="rotate(90 80 64.5)" fill="white" fill-opacity="0.05"/>
<rect x="80" y="69.5" width="1" height="80" transform="rotate(90 80 69.5)" fill="white" fill-opacity="0.05"/>
<rect x="80" y="74.5" width="1" height="80" transform="rotate(90 80 74.5)" fill="white" fill-opacity="0.05"/>
<rect x="-0.5" width="1" height="80" fill="white" fill-opacity="0.1"/>
<rect x="79.5" width="1" height="80" fill="white" fill-opacity="0.1"/>
<rect y="0.5" width="1" height="80" transform="rotate(-90 0 0.5)" fill="white" fill-opacity="0.1"/>
<rect y="80.5" width="1" height="80" transform="rotate(-90 0 80.5)" fill="white" fill-opacity="0.1"/>
<path fill-rule="evenodd" clip-rule="evenodd" d="M0.5 -3H-0.5V-0.5H-3V0.5H-0.5V3H0.5V0.5H3V-0.5H0.5V-3Z" fill="white" fill-opacity="0.3"/>
<path fill-rule="evenodd" clip-rule="evenodd" d="M80.5 -3H79.5V-0.5H77V0.5H79.5V3H80.5V0.5H83V-0.5H80.5V-3Z" fill="white" fill-opacity="0.3"/>
<path fill-rule="evenodd" clip-rule="evenodd" d="M80.5 77H79.5V79.5H77V80.5H79.5V83H80.5V80.5H83V79.5H80.5V77Z" fill="white" fill-opacity="0.3"/>
<path fill-rule="evenodd" clip-rule="evenodd" d="M0.5 77H-0.5V79.5H-3V80.5H-0.5V83H0.5V80.5H3V79.5H0.5V77Z" fill="white" fill-opacity="0.3"/>
</g>
<defs>
<clipPath id="clip0_1836_78245">
<rect width="80" height="80" fill="white"/>
</clipPath>
</defs>
</svg>
